<svg width="142" height="103" viewBox="0 0 142 103" fill="none" xmlns="http://www.w3.org/2000/svg">
<path fill-rule="evenodd" clip-rule="evenodd" d="M43.6031 40.6502C40.6887 38.6663 38.7747 35.3218 38.7747 31.5304C38.7747 27.7389 40.6887 24.3944 43.6031 22.4105L43.6031 40.6502ZM71.6081 42.5388L71.6081 20.5059L91.408 20.5059L71.6081 42.5388Z" fill="#CCDB39"/>
<path d="M81.8703 54.5815C81.8703 60.6702 76.9345 65.606 70.8458 65.606C64.7572 65.606 59.8214 60.6702 59.8214 54.5815V43.5571H81.8703V54.5815Z" fill="#14B8AD"/>
<path fill-rule="evenodd" clip-rule="evenodd" d="M99.7748 40.772C102.792 38.805 104.786 35.4006 104.786 31.5305C104.786 27.6603 102.792 24.2559 99.7748 22.2889V40.772ZM70.7103 42.456V20.506L50.2416 20.506L70.7103 42.456Z" fill="#CCDB39"/>
<path fill-rule="evenodd" clip-rule="evenodd" d="M36.7702 31.5304C36.7702 37.619 41.706 42.5549 47.7947 42.5549L69.163 42.5549C69.3981 42.5549 69.6316 42.5475 69.8631 42.533L49.1189 20.5059H47.7947C41.7061 20.5059 36.7702 25.4418 36.7702 31.5304Z" fill="#14B8AD"/>
<path fill-rule="evenodd" clip-rule="evenodd" d="M105.005 31.5304C105.005 37.619 100.069 42.5549 93.9802 42.5549L73.8488 42.5549C73.5201 42.5549 73.1949 42.5405 72.8735 42.5123L93.0078 20.5059H93.9802C100.069 20.5059 105.005 25.4418 105.005 31.5304Z" fill="#14B8AD"/>
<path fill-rule="evenodd" clip-rule="evenodd" d="M71.8481 19.5037C71.8779 19.1736 71.8931 18.8393 71.8931 18.5015V9.46477L78.1287 3.22911C82.4341 -1.07621 89.4144 -1.07621 93.7197 3.22911C98.025 7.53443 98.025 14.5147 93.7197 18.8201L93.036 19.5037L71.8481 19.5037Z" fill="#CCDB39"/>
<path d="M87.1934 79.8657C81.1048 79.8657 76.169 74.9298 76.169 68.8412C76.169 62.7526 81.1048 57.8167 87.1934 57.8167H98.2179V79.8657H87.1934Z" fill="#14B8AD"/>
<path fill-rule="evenodd" clip-rule="evenodd" d="M101.125 41.5985C103.109 38.684 106.453 36.7701 110.245 36.7701C114.036 36.7701 117.38 38.684 119.364 41.5985H101.125ZM99.2361 69.6035H121.269V89.4034L99.2361 69.6035Z" fill="#CCDB39"/>
<path fill-rule="evenodd" clip-rule="evenodd" d="M101.003 97.7701C102.97 100.787 106.374 102.781 110.245 102.781C114.115 102.781 117.519 100.787 119.486 97.7701H101.003ZM99.319 68.7057H121.269V48.2369L99.319 68.7057Z" fill="#CCDB39"/>
<path fill-rule="evenodd" clip-rule="evenodd" d="M110.245 34.7656C104.156 34.7656 99.2201 39.7014 99.2201 45.7901V67.1584C99.2201 67.3935 99.2275 67.6269 99.242 67.8584L121.269 47.1143V45.7901C121.269 39.7014 116.333 34.7656 110.245 34.7656Z" fill="#14B8AD"/>
<path fill-rule="evenodd" clip-rule="evenodd" d="M110.245 103C104.156 103 99.2201 98.0642 99.2201 91.9756V71.8441C99.2201 71.5155 99.2345 71.1902 99.2627 70.8689L121.269 91.0032V91.9755C121.269 98.0642 116.333 103 110.245 103Z" fill="#14B8AD"/>
<path fill-rule="evenodd" clip-rule="evenodd" d="M122.271 68.8862C122.601 68.8564 122.936 68.8412 123.273 68.8412H132.31L138.546 62.6055C142.851 58.3002 142.851 51.3199 138.546 47.0146C134.241 42.7093 127.26 42.7093 122.955 47.0146L122.271 47.6983V68.8862Z" fill="#CCDB39"/>
<path fill-rule="evenodd" clip-rule="evenodd" d="M122.271 69.8435C122.601 69.8733 122.936 69.8885 123.273 69.8885H132.31L138.546 76.1241C142.851 80.4294 142.851 87.4097 138.546 91.7151C134.241 96.0204 127.26 96.0204 122.955 91.7151L122.271 91.0314V69.8435Z" fill="#CCDB39"/>
<path d="M54.5814 79.8657C60.6701 79.8657 65.6059 74.9298 65.6059 68.8412C65.6059 62.7526 60.6701 57.8167 54.5814 57.8167H43.557V79.8657H54.5814Z" fill="#14B8AD"/>
<path fill-rule="evenodd" clip-rule="evenodd" d="M40.6502 41.5985C38.6662 38.684 35.3218 36.7701 31.5303 36.7701C27.7388 36.7701 24.3944 38.684 22.4104 41.5985H40.6502ZM42.5388 69.6035H20.5058V89.4034L42.5388 69.6035Z" fill="#CCDB39"/>
<path fill-rule="evenodd" clip-rule="evenodd" d="M31.5303 34.7656C37.6189 34.7656 42.5547 39.7014 42.5547 45.7901V67.1584C42.5547 67.3935 42.5474 67.6269 42.5329 67.8584L20.5058 47.1143V45.7901C20.5058 39.7014 25.4416 34.7656 31.5303 34.7656Z" fill="#14B8AD"/>
<path fill-rule="evenodd" clip-rule="evenodd" d="M31.5303 103C37.6189 103 42.5547 98.0642 42.5547 91.9756V71.8441C42.5547 71.5155 42.5404 71.1902 42.5122 70.8689L20.5058 91.0032V91.9755C20.5058 98.0642 25.4416 103 31.5303 103Z" fill="#14B8AD"/>
<path fill-rule="evenodd" clip-rule="evenodd" d="M19.5036 68.8862C19.1735 68.8564 18.8392 68.8412 18.5014 68.8412H9.46465L3.22899 62.6055C-1.07633 58.3002 -1.07633 51.3199 3.22899 47.0146C7.53431 42.7093 14.5146 42.7093 18.8199 47.0146L19.5036 47.6983L19.5036 68.8862Z" fill="#CCDB39"/>
<path fill-rule="evenodd" clip-rule="evenodd" d="M19.5036 69.8435C19.1735 69.8733 18.8392 69.8885 18.5014 69.8885H9.46465L3.22899 76.1241C-1.07633 80.4294 -1.07633 87.4097 3.22899 91.7151C7.53431 96.0204 14.5146 96.0204 18.8199 91.7151L19.5036 91.0314L19.5036 69.8435Z" fill="#CCDB39"/>
<path fill-rule="evenodd" clip-rule="evenodd" d="M40.7718 97.77C38.8048 100.787 35.4004 102.781 31.5303 102.781C27.6601 102.781 24.2558 100.787 22.2887 97.77H40.7718ZM42.4558 68.7055H20.5058V48.2368L42.4558 68.7055Z" fill="#CCDB39"/>
<path fill-rule="evenodd" clip-rule="evenodd" d="M70.8908 19.5036C70.861 19.1735 70.8458 18.8392 70.8458 18.5014V9.46465L64.6102 3.22899C60.3049 -1.07633 53.3246 -1.07633 49.0192 3.22899C44.7139 7.53431 44.7139 14.5146 49.0192 18.8199L49.7029 19.5036L70.8908 19.5036Z" fill="#CCDB39"/>
</svg>
