<svg width="16" height="16" viewBox="0 0 16 16" fill="none" xmlns="http://www.w3.org/2000/svg">
<path d="M8 14.9677C11.8482 14.9677 14.9677 11.8482 14.9677 8C14.9677 4.15182 11.8482 1.03226 8 1.03226C4.15182 1.03226 1.03226 4.15182 1.03226 8C1.03226 11.8482 4.15182 14.9677 8 14.9677Z" stroke="white" stroke-width="2" stroke-miterlimit="10"/>
<path d="M1.42906 5.67742H14.5709" stroke="white" stroke-width="2" stroke-linecap="round" stroke-linejoin="round"/>
<path d="M1.42931 10.3226H14.571" stroke="white" stroke-width="2" stroke-linecap="round" stroke-linejoin="round"/>
<path d="M8 14.7807C9.60341 14.7807 10.9032 11.7449 10.9032 8.00001C10.9032 4.25514 9.60341 1.21932 8 1.21932C6.39659 1.21932 5.09677 4.25514 5.09677 8.00001C5.09677 11.7449 6.39659 14.7807 8 14.7807Z" stroke="white" stroke-width="2" stroke-miterlimit="10"/>
</svg>
