<svg width="36" height="35" viewBox="0 0 36 35" fill="none" xmlns="http://www.w3.org/2000/svg">
<path d="M17.1067 26.9498H25.157M25.157 26.9498H25.4253C25.5413 26.9498 25.5993 26.9498 25.6521 26.9292C25.7049 26.9087 25.7477 26.8695 25.8332 26.7911L31.5247 21.5739C31.6102 21.4955 31.653 21.4563 31.7058 21.4358C31.7586 21.4152 31.8166 21.4152 31.9326 21.4152H33.0647C33.1356 21.4152 33.1711 21.4152 33.2053 21.4233C33.2395 21.4314 33.2712 21.4473 33.3347 21.479L34.0335 21.8284C34.1227 21.873 34.1673 21.8953 34.2019 21.9299C34.2366 21.9646 34.2589 22.0092 34.3035 22.0984L34.6529 22.7972C34.6846 22.8606 34.7005 22.8924 34.7085 22.9266C34.7166 22.9608 34.7166 22.9962 34.7166 23.0672V24.184C34.7166 24.3074 34.7166 24.3691 34.6936 24.4246C34.6707 24.48 34.627 24.5237 34.5398 24.6109L27.8495 31.3012C27.7623 31.3884 27.7186 31.4321 27.6631 31.455C27.6077 31.478 27.546 31.478 27.4226 31.478H9.66028C9.37566 31.478 9.23335 31.478 9.14493 31.3896C9.05651 31.3012 9.05651 31.1589 9.05651 30.8743V22.4947C9.05651 22.4503 9.08298 22.4102 9.12381 22.3927L9.77826 22.1122C11.6384 21.315 13.5874 20.7439 15.5836 20.4112V20.4112C15.5927 20.4097 15.602 20.4096 15.6111 20.4109L18.9837 20.8927C19.0512 20.9024 19.085 20.9072 19.1166 20.9193C19.1481 20.9313 19.1765 20.9502 19.2332 20.9881L21.986 22.8233C22.0615 22.8736 22.0993 22.8987 22.1421 22.9117C22.1848 22.9247 22.2302 22.9247 22.3209 22.9247H25.5176C25.5885 22.9247 25.624 22.9247 25.6582 22.9327C25.6924 22.9408 25.7241 22.9567 25.7876 22.9884L26.4864 23.3378C26.5756 23.3824 26.6202 23.4047 26.6548 23.4393C26.6895 23.474 26.7118 23.5186 26.7564 23.6078L27.0577 24.2104C27.1129 24.3208 27.1405 24.3759 27.1447 24.4358C27.149 24.4957 27.1295 24.5543 27.0904 24.6713L26.7319 25.747C26.6994 25.8443 26.6832 25.893 26.6527 25.933C26.6221 25.973 26.5794 26.0015 26.494 26.0584L25.157 26.9498Z" stroke="#007C85" stroke-width="2" stroke-linecap="round"/>
<mask id="path-2-inside-1_166_1281" fill="white">
<rect y="18.8995" width="6.03767" height="16.1005" rx="1"/>
</mask>
<rect y="18.8995" width="6.03767" height="16.1005" rx="1" fill="#D9D9D9" stroke="#007C85" stroke-width="4" mask="url(#path-2-inside-1_166_1281)"/>
<mask id="path-3-inside-2_166_1281" fill="white">
<rect x="4.02511" y="19.9058" width="6.03767" height="14.0879" rx="1"/>
</mask>
<rect x="4.02511" y="19.9058" width="6.03767" height="14.0879" rx="1" fill="#D9D9D9" stroke="#007C85" stroke-width="4" mask="url(#path-3-inside-2_166_1281)"/>
<path d="M22.0034 4.33545L17.6599 5.20415C17.4234 5.25144 17.3351 5.54315 17.5056 5.71364L20.5261 8.73416C20.591 8.799 20.6228 8.88981 20.6127 8.98096L20.1799 12.8764C20.155 13.1002 20.3751 13.2715 20.5859 13.1924L24.0554 11.8913C24.1172 11.8681 24.1849 11.8659 24.2482 11.8848L28.7008 13.2206C28.9189 13.2861 29.1282 13.0956 29.0835 12.8723L28.2046 8.47771C28.1864 8.38675 28.2111 8.29247 28.2714 8.22204L30.8292 5.238C30.9858 5.05532 30.8762 4.77183 30.6374 4.74199L27.2853 4.32298C27.2108 4.31366 27.1424 4.27691 27.0936 4.21989L24.4295 1.11177C24.2936 0.953266 24.0417 0.9772 23.9382 1.15846L22.2063 4.1892C22.163 4.26499 22.089 4.31833 22.0034 4.33545Z" stroke="#CCDB39" stroke-width="2"/>
</svg>
