<svg width="18" height="13" viewBox="0 0 18 13" fill="none" xmlns="http://www.w3.org/2000/svg">
<path d="M16.9859 5.00704H12.4225V2.15493H15.4589C15.5729 2.15493 15.6843 2.18909 15.7787 2.253C15.8731 2.31692 15.9462 2.40765 15.9885 2.5135L16.9859 5.00704Z" stroke="white" stroke-width="2" stroke-linecap="round" stroke-linejoin="round"/>
<path d="M1.01408 6.71831H12.4225" stroke="white" stroke-width="2" stroke-linecap="round" stroke-linejoin="round"/>
<path d="M13.2782 11.8521C14.2233 11.8521 14.9894 11.086 14.9894 10.1408C14.9894 9.19574 14.2233 8.42958 13.2782 8.42958C12.3331 8.42958 11.5669 9.19574 11.5669 10.1408C11.5669 11.086 12.3331 11.8521 13.2782 11.8521Z" stroke="white" stroke-width="2" stroke-miterlimit="10"/>
<path d="M4.72183 11.8521C5.66694 11.8521 6.4331 11.086 6.4331 10.1408C6.4331 9.19574 5.66694 8.42958 4.72183 8.42958C3.77672 8.42958 3.01056 9.19574 3.01056 10.1408C3.01056 11.086 3.77672 11.8521 4.72183 11.8521Z" stroke="white" stroke-width="2" stroke-miterlimit="10"/>
<path d="M11.5669 10.1408H6.4331" stroke="white" stroke-width="2" stroke-linecap="round" stroke-linejoin="round"/>
<path d="M3.01056 10.1408H1.58451C1.43322 10.1408 1.28813 10.0807 1.18116 9.97377C1.07418 9.8668 1.01408 9.72171 1.01408 9.57042V1.58451C1.01408 1.43322 1.07418 1.28813 1.18116 1.18116C1.28813 1.07418 1.43322 1.01408 1.58451 1.01408H12.4225V8.65882" stroke="white" stroke-width="2" stroke-linecap="round" stroke-linejoin="round"/>
<path d="M12.4225 8.65882V5.00704H16.9859V9.57042C16.9859 9.72171 16.9258 9.8668 16.8188 9.97377C16.7119 10.0807 16.5668 10.1408 16.4155 10.1408H14.9894" stroke="white" stroke-width="2" stroke-linecap="round" stroke-linejoin="round"/>
</svg>
