<svg width="36" height="37" viewBox="0 0 36 37" fill="none" xmlns="http://www.w3.org/2000/svg">
<path d="M14.4268 1C17.6146 1.00006 20.3729 3.90467 20.3731 7.71387C20.3731 11.5233 17.6147 14.4287 14.4268 14.4287C11.2389 14.4287 8.48053 11.5233 8.48053 7.71387C8.48073 3.90464 11.239 1 14.4268 1Z" fill="#F6F5F7" stroke="#007C85" stroke-width="2"/>
<path d="M14.4268 15.6939C21.7382 15.6939 27.8534 22.3727 27.8535 30.857C27.8535 32.997 27.4271 34.073 26.9072 34.6275C26.4087 35.1589 25.6299 35.415 24.3662 35.4087C23.0915 35.4023 21.5672 35.1351 19.749 34.8443C17.9707 34.5598 15.971 34.2652 13.8926 34.2652C11.8114 34.2652 9.87728 34.5607 8.19336 34.8462C6.46576 35.1391 5.08731 35.4023 3.95312 35.4087C2.84975 35.4149 2.22782 35.1729 1.82422 34.6792C1.36994 34.1235 1 33.0269 1 30.857C1.00009 22.3727 7.11528 15.6939 14.4268 15.6939Z" fill="#F6F5F7" stroke="#007C85" stroke-width="2"/>
<path d="M7.34693 7.34692H5.51019C5.51019 11.3877 5.7258 24.6122 13.8924 24.6122C21.3729 24.6122 24.0445 15.7959 23.5102 7.34692H21.3061" stroke="#CCDB39" stroke-width="2"/>
<path d="M13.8924 24.6122C13.8924 31.2245 28.8534 36.3673 32.0594 12.8571" stroke="#CCDB39" stroke-width="2"/>
<circle cx="32.6939" cy="9.91837" r="2.30612" stroke="#CCDB39" stroke-width="2"/>
</svg>
