<svg width="66" height="69" viewBox="0 0 66 69" fill="none" xmlns="http://www.w3.org/2000/svg">
<path d="M11.0907 45.371C4.96547 45.371 0 40.4055 0 34.2803C0 28.1551 4.96547 23.1896 11.0907 23.1896L22.1814 23.1896L22.1814 45.371H11.0907Z" fill="white"/>
<path fill-rule="evenodd" clip-rule="evenodd" d="M25.1056 6.87394C27.1015 3.94196 30.466 2.01649 34.2803 2.01649C38.0945 2.01649 41.4591 3.94196 43.4549 6.87394H25.1056ZM23.2057 35.0472H45.371V54.966L23.2057 35.0472Z" fill="white"/>
<path fill-rule="evenodd" clip-rule="evenodd" d="M24.9832 63.383C26.9621 66.418 30.3869 68.4242 34.2803 68.4242C38.1737 68.4242 41.5985 66.418 43.5774 63.383H24.9832ZM23.2891 34.1439H45.371V13.5523L23.2891 34.1439Z" fill="white"/>
<path fill-rule="evenodd" clip-rule="evenodd" d="M34.2803 0C28.1551 0 23.1896 4.96546 23.1896 11.0907V32.5873C23.1896 32.8239 23.197 33.0587 23.2116 33.2916L45.371 12.4228V11.0907C45.371 4.96547 40.4055 0 34.2803 0Z" fill="white"/>
<path fill-rule="evenodd" clip-rule="evenodd" d="M34.2803 68.6443C28.1551 68.6443 23.1896 63.6788 23.1896 57.5536V37.3013C23.1896 36.9707 23.2041 36.6434 23.2324 36.3202L45.371 56.5754V57.5536C45.371 63.6788 40.4055 68.6443 34.2803 68.6443Z" fill="white"/>
<path fill-rule="evenodd" clip-rule="evenodd" d="M46.3792 34.3255C46.7113 34.2956 47.0476 34.2803 47.3875 34.2803H56.4785L62.7516 28.0072C67.0828 23.676 67.0828 16.6538 62.7516 12.3226C58.4204 7.9914 51.3982 7.9914 47.067 12.3226L46.3792 13.0104V34.3255Z" fill="white"/>
<path fill-rule="evenodd" clip-rule="evenodd" d="M46.3792 35.2886C46.7113 35.3186 47.0476 35.3338 47.3875 35.3338H56.4785L62.7516 41.607C67.0828 45.9381 67.0828 52.9604 62.7516 57.2916C58.4204 61.6227 51.3982 61.6227 47.067 57.2916L46.3792 56.6038V35.2886Z" fill="white"/>
</svg>
