<svg width="26" height="36" viewBox="0 0 26 36" fill="none" xmlns="http://www.w3.org/2000/svg">
<rect y="5.57748" width="25.3521" height="30.4225" rx="1.5" fill="#007C85"/>
<rect x="8.13" y="6.59152" width="10.11" height="1.01408" rx="0.5" fill="white"/>
<rect x="2" y="8.99999" width="21" height="25" rx="0.5" fill="#F6F5F7"/>
<rect x="14.1972" y="12.676" width="8.11267" height="2.02817" rx="0.5" fill="#007C85"/>
<rect x="14.1972" y="18.7605" width="8.11267" height="1.01408" rx="0.5" fill="#007C85"/>
<rect x="3.04226" y="25.8591" width="19.2676" height="1.01408" rx="0.5" fill="#007C85"/>
<rect x="3.04226" y="28.9014" width="19.2676" height="1.01408" rx="0.5" fill="#007C85"/>
<rect x="3.04226" y="31.9436" width="19.2676" height="1.01408" rx="0.5" fill="#007C85"/>
<circle cx="7.60564" cy="13.1831" r="2.53521" fill="#007C85"/>
<rect x="9.49999" width="6.99999" height="6.99999" rx="0.5" fill="#CCDB39"/>
<path fill-rule="evenodd" clip-rule="evenodd" d="M12.1412 20.7887C12.1596 20.6223 12.169 20.4531 12.169 20.2817C12.169 17.7614 10.1259 15.7183 7.60564 15.7183C5.08536 15.7183 3.04226 17.7614 3.04226 20.2817C3.04226 20.4531 3.05171 20.6223 3.07012 20.7887H12.1412Z" fill="#007C85"/>
<ellipse cx="13.1831" cy="2.02817" rx="1.52113" ry="1.52113" fill="white"/>
<circle cx="13.1831" cy="2.02816" r="0.507042" fill="#CCDB39"/>
<rect x="14.1972" y="16.7324" width="8.11267" height="1.01408" rx="0.5" fill="#007C85"/>
</svg>
